<?xml version="1.0" standalone="no"?><!DOCTYPE svg PUBLIC "-//W3C//DTD SVG 1.1//EN" "http://www.w3.org/Graphics/SVG/1.1/DTD/svg11.dtd"><svg t="1739185456766" class="icon" viewBox="0 0 1024 1024" version="1.1" xmlns="http://www.w3.org/2000/svg" p-id="3126" xmlns:xlink="http://www.w3.org/1999/xlink" width="200" height="200"><path d="M608 200.021333v111.957334c0 22.101333-17.92 39.978667-40.021333 40.021333h-112a40.064 40.064 0 0 1-39.978667-40.021333V200.021333c0-22.101333 17.92-39.978667 39.978667-40.021333h112c22.101333 0 39.978667 17.92 40.021333 40.021333zM311.978667 160H199.978667a40.064 40.064 0 0 0-39.978667 40.021333v111.957334c0 22.101333 17.92 39.978667 40.021333 40.021333h111.957334c22.101333 0 39.978667-17.92 40.021333-40.021333V200.021333a40.064 40.064 0 0 0-40.021333-40.021333z m512 0h-112a40.064 40.064 0 0 0-39.978667 40.021333v111.957334c0 22.101333 17.92 39.978667 40.021333 40.021333h112c22.058667 0 39.936-17.92 39.978667-40.021333V200.021333a40.064 40.064 0 0 0-40.021333-40.021333z m0 256h-112a40.064 40.064 0 0 0-39.978667 39.978667v112c0 22.101333 17.92 39.978667 40.021333 40.021333h112c22.058667 0 39.936-17.92 39.978667-40.021333v-112a40.064 40.064 0 0 0-40.021333-39.978667z m-512 0H199.978667a40.064 40.064 0 0 0-39.978667 39.978667v112c0 22.101333 17.92 39.978667 40.021333 40.021333h111.957334c22.101333 0 39.978667-17.92 40.021333-40.021333v-112a40.064 40.064 0 0 0-40.021333-39.978667z m256 0h-112a40.064 40.064 0 0 0-39.978667 39.978667v112c0 22.101333 17.92 39.978667 39.978667 40.021333h112c22.101333 0 39.978667-17.92 40.021333-40.021333v-112a40.064 40.064 0 0 0-40.021333-39.978667z m-256 256H199.978667a40.064 40.064 0 0 0-39.978667 40.021333v112c0 22.058667 17.92 39.936 40.021333 39.978667h111.957334c22.101333 0 39.978667-17.92 40.021333-40.021333v-112a40.064 40.064 0 0 0-40.021333-39.978667z m256 0h-112a40.064 40.064 0 0 0-39.978667 40.021333v112c0 22.058667 17.92 39.936 39.978667 39.978667h112c22.101333 0 39.978667-17.92 40.021333-40.021333v-112a40.064 40.064 0 0 0-40.021333-39.978667z m256 0h-112a40.064 40.064 0 0 0-39.978667 40.021333v112c0 22.058667 17.92 39.936 40.021333 39.978667h112c22.058667 0 39.936-17.92 39.978667-40.021333v-112a40.064 40.064 0 0 0-40.021333-39.978667z" p-id="3127" fill="#cccccc"></path></svg>