<?xml version="1.0" standalone="no"?><!DOCTYPE svg PUBLIC "-//W3C//DTD SVG 1.1//EN" "http://www.w3.org/Graphics/SVG/1.1/DTD/svg11.dtd"><svg t="1737211883857" class="icon" viewBox="0 0 1024 1024" version="1.1" xmlns="http://www.w3.org/2000/svg" p-id="5373" xmlns:xlink="http://www.w3.org/1999/xlink" width="200" height="200"><path d="M828.769 557.253c-12.496 12.496-32.757 12.496-45.253 0-12.496-12.496-12.496-32.756 0-45.253l67.879-67.879c74.977-74.978 74.977-196.54 0-271.516-74.977-74.977-196.538-74.977-271.516 0L421.495 330.99c-74.977 74.977-74.977 196.539 0 271.516 12.496 12.496 12.496 32.756 0 45.253-12.496 12.496-32.756 12.496-45.253 0-99.97-99.969-99.97-262.051 0-362.021l158.384-158.384c99.97-99.97 262.052-99.97 362.021 0 99.97 99.97 99.97 262.052 0 362.02l-67.878 67.88z m-181.011-181.01c99.97 99.968 99.97 262.05 0 362.02L489.374 896.647c-99.97 99.97-262.052 99.97-362.021 0s-99.97-262.052 0-362.02l45.252-45.253c12.497-12.496 32.756-12.496 45.253 0 12.496 12.496 12.496 32.756 0 45.252l-45.253 45.253c-74.976 74.978-74.976 196.54 0 271.516s196.54 74.976 271.516 0L602.505 693.01c74.977-74.977 74.977-196.539 0-271.516-12.496-12.496-12.496-32.756 0-45.253s32.756-12.497 45.253 0z" p-id="5374"></path></svg>