<?xml version="1.0" standalone="no"?><!DOCTYPE svg PUBLIC "-//W3C//DTD SVG 1.1//EN" "http://www.w3.org/Graphics/SVG/1.1/DTD/svg11.dtd"><svg t="1739185398225" class="icon" viewBox="0 0 1024 1024" version="1.1" xmlns="http://www.w3.org/2000/svg" p-id="919" xmlns:xlink="http://www.w3.org/1999/xlink" width="200" height="200"><path d="M871.173953 407.921116L265.394605 22.432744C239.616 7.549023 213.944558 0 189.606698 0c-63.666605 0-106.924651 51.128558-106.924651 127.202233v769.583627c0 76.085581 43.258047 127.21414 106.88893 127.21414 24.33786 0 49.985488-7.537116 76.91907-23.111442l603.743255-384.095256c45.853767-26.481116 71.084651-63.666605 71.084651-104.709953 0-41.102884-25.373767-78.336-70.144-104.162233z m-52.61693 152.587907L250.701395 921.83814c-15.026605 8.680186-29.719814 13.252465-42.019721 13.252465-37.483163 0-41.984-42.73414-41.984-61.106605V150.016c0-18.372465 4.500837-61.106605 42.019721-61.106605 12.311814 0 26.969302 4.584186 40.912372 12.609489l569.97507 362.638883C843.573581 477.993674 857.302326 495.461209 857.302326 512.071442c0 16.574512-13.764465 33.982512-38.745303 48.437581z" p-id="920" fill="#cccccc"></path></svg>