<?xml version="1.0" standalone="no"?><!DOCTYPE svg PUBLIC "-//W3C//DTD SVG 1.1//EN" "http://www.w3.org/Graphics/SVG/1.1/DTD/svg11.dtd"><svg t="1739185324602" class="icon" viewBox="0 0 1024 1024" version="1.1" xmlns="http://www.w3.org/2000/svg" p-id="27180" xmlns:xlink="http://www.w3.org/1999/xlink" width="200" height="200"><path d="M557.312 513.249l265.28-263.904c12.544-12.48 12.608-32.705 0.128-45.249-12.513-12.576-32.705-12.607-45.249-0.127L512.127 467.904l-263.039-263.84c-12.447-12.48-32.704-12.544-45.248-0.064-12.513 12.48-12.544 32.735-0.064 45.28l262.976 263.776L201.6 776.801c-12.543 12.48-12.607 32.704-0.127 45.248a31.936 31.936 0 0 0 22.688 9.44c8.16 0 16.32-3.103 22.56-9.311L511.938 558.37l265.44 266.24c6.24 6.272 14.433 9.408 22.657 9.408a31.937 31.937 0 0 0 22.592-9.344c12.512-12.48 12.543-32.705 0.063-45.248L557.312 513.249z" p-id="27181" fill="#cccccc"></path></svg>