<?xml version="1.0" standalone="no"?><!DOCTYPE svg PUBLIC "-//W3C//DTD SVG 1.1//EN" "http://www.w3.org/Graphics/SVG/1.1/DTD/svg11.dtd"><svg t="1737555584704" class="icon" viewBox="0 0 1024 1024" version="1.1" xmlns="http://www.w3.org/2000/svg" p-id="2211" xmlns:xlink="http://www.w3.org/1999/xlink" width="200" height="200"><path d="M204.8 426.666667c0 10.24 6.826667 17.066667 17.066667 17.066666s17.066667-6.826667 17.066666-17.066666c0-81.92 10.24-126.293333 37.546667-150.186667s68.266667-37.546667 150.186667-37.546667c10.24 0 17.066667-6.826667 17.066666-17.066666s-6.826667-17.066667-17.066666-17.066667c-81.92 0-126.293333-10.24-150.186667-37.546667S238.933333 98.986667 238.933333 17.066667c0-10.24-6.826667-17.066667-17.066666-17.066667S204.8 6.826667 204.8 17.066667c0 81.92-10.24 126.293333-37.546667 150.186666S98.986667 204.8 17.066667 204.8c-10.24 0-17.066667 6.826667-17.066667 17.066667s6.826667 17.066667 17.066667 17.066666c81.92 0 126.293333 10.24 150.186666 37.546667s37.546667 68.266667 37.546667 150.186667zM409.6 119.466667c30.72 0 47.786667 3.413333 54.613333 13.653333 10.24 6.826667 13.653333 23.893333 13.653334 54.613333 0 10.24 6.826667 17.066667 17.066666 17.066667s17.066667-6.826667 17.066667-17.066667c0-30.72 3.413333-47.786667 13.653333-54.613333 10.24-10.24 23.893333-13.653333 54.613334-13.653333 10.24 0 17.066667-6.826667 17.066666-17.066667s-6.826667-17.066667-17.066666-17.066667c-30.72 0-47.786667-3.413333-54.613334-13.653333-10.24-6.826667-13.653333-23.893333-13.653333-54.613333 0-10.24-6.826667-17.066667-17.066667-17.066667s-17.066667 6.826667-17.066666 17.066667c0 30.72-3.413333 47.786667-13.653334 54.613333-10.24 10.24-23.893333 13.653333-54.613333 13.653333-10.24 0-17.066667 6.826667-17.066667 17.066667s6.826667 17.066667 17.066667 17.066667zM433.493333 488.106667c-17.066667-17.066667-23.893333-44.373333-23.893333-95.573334 0-10.24-6.826667-17.066667-17.066667-17.066666s-17.066667 6.826667-17.066666 17.066666c0 54.613333-6.826667 81.92-23.893334 95.573334-13.653333 17.066667-40.96 23.893333-95.573333 23.893333-10.24 0-17.066667 6.826667-17.066667 17.066667s6.826667 17.066667 17.066667 17.066666c54.613333 0 81.92 6.826667 95.573333 23.893334 17.066667 17.066667 23.893333 44.373333 23.893334 95.573333 0 10.24 6.826667 17.066667 17.066666 17.066667s17.066667-6.826667 17.066667-17.066667c0-54.613333 6.826667-81.92 23.893333-95.573333 17.066667-17.066667 44.373333-23.893333 95.573334-23.893334 10.24 0 17.066667-6.826667 17.066666-17.066666s-6.826667-17.066667-17.066666-17.066667c-54.613333 0-81.92-6.826667-95.573334-23.893333z" fill="#409eff" p-id="2212"></path><path d="M737.28 109.226667c-6.826667-3.413333-13.653333 0-20.48 3.413333-3.413333 3.413333-6.826667 13.653333-3.413333 20.48C737.28 187.733333 750.933333 245.76 750.933333 307.2c0 245.76-197.973333 443.733333-443.733333 443.733333-61.44 0-119.466667-13.653333-177.493333-37.546666-6.826667-3.413333-13.653333 0-20.48 3.413333s-6.826667 13.653333-3.413334 20.48C184.32 911.36 354.986667 1024 546.133333 1024c262.826667 0 477.866667-215.04 477.866667-477.866667 0-191.146667-112.64-361.813333-286.72-436.906666z" fill="#409eff" p-id="2213"></path></svg>