<?xml version="1.0" standalone="no"?><!DOCTYPE svg PUBLIC "-//W3C//DTD SVG 1.1//EN" "http://www.w3.org/Graphics/SVG/1.1/DTD/svg11.dtd"><svg t="1739185337418" class="icon" viewBox="0 0 1024 1024" version="1.1" xmlns="http://www.w3.org/2000/svg" p-id="27407" xmlns:xlink="http://www.w3.org/1999/xlink" width="200" height="200"><path d="M874.69 495.525c0 11.297-9.168 20.466-20.466 20.466H249.45l188.084 188.084c7.992 7.992 7.992 20.947 0 28.939a20.445 20.445 0 0 1-14.47 5.996 20.408 20.408 0 0 1-14.48-5.996l-223.008-223.01a20.455 20.455 0 0 1 0-28.94l223.019-223.028c7.992-7.992 20.957-7.992 28.95 0 7.991 8.002 7.991 20.957 0 28.95L249.47 475.058h604.753c11.298 0 20.466 9.158 20.466 20.466z" p-id="27408" fill="#cccccc"></path></svg>