<?xml version="1.0" standalone="no"?><!DOCTYPE svg PUBLIC "-//W3C//DTD SVG 1.1//EN" "http://www.w3.org/Graphics/SVG/1.1/DTD/svg11.dtd"><svg t="1739185341840" class="icon" viewBox="0 0 1024 1024" version="1.1" xmlns="http://www.w3.org/2000/svg" p-id="27601" xmlns:xlink="http://www.w3.org/1999/xlink" width="200" height="200"><path d="M874.69 495.535a20.475 20.475 0 0 1-5.996 14.47l-223.01 223.009a20.445 20.445 0 0 1-14.469 5.996 20.408 20.408 0 0 1-14.48-5.996c-7.992-7.992-7.992-20.947 0-28.94L804.82 515.992H200.045c-11.297 0-20.466-9.169-20.466-20.466 0-11.308 9.169-20.466 20.466-20.466H804.8L616.725 286.985c-7.992-7.992-7.992-20.947 0-28.95 7.992-7.991 20.957-7.991 28.95 0l223.019 223.03a20.455 20.455 0 0 1 5.996 14.47z" p-id="27602" fill="#cccccc"></path></svg>